<?xml version="1.0" ?><svg fill="#212529" height="20" version="1.1" viewBox="0 0 20 20" width="20" xmlns="http://www.w3.org/2000/svg"><g id="layer1"><path d="M 3 0 L 3 20 L 17 20 L 17 19 L 16 19 L 4 19 L 4 1 L 12 1 L 12 4 L 12 5 L 16 5 L 16 12 L 17 12 L 17 5 L 17 4 L 13 0 L 12 0 L 3 0 z M 13 1.3535156 L 15.646484 4 L 13 4 L 13 1.3535156 z M 10 13 L 9.8164062 13.007812 L 9.6328125 13.033203 L 9.453125 13.076172 L 9.2773438 13.134766 L 9.1074219 13.208984 L 8.9472656 13.298828 L 8.7949219 13.404297 L 8.6523438 13.521484 L 8.5214844 13.652344 L 8.4042969 13.794922 L 8.3007812 13.947266 L 8.2089844 14.107422 L 8.1347656 14.277344 L 8.0761719 14.451172 L 8.0351562 14.632812 L 8.0078125 14.816406 L 8 15 L 8 16 L 8.0078125 16.183594 L 8.0351562 16.367188 L 8.0761719 16.546875 L 8.1347656 16.722656 L 8.2089844 16.890625 L 8.3007812 17.052734 L 8.4042969 17.205078 L 8.5214844 17.347656 L 8.6523438 17.478516 L 8.7949219 17.595703 L 8.9472656 17.699219 L 9.1074219 17.791016 L 9.2773438 17.865234 L 9.453125 17.923828 L 9.6328125 17.964844 L 9.8164062 17.992188 L 10 18 L 10.183594 17.992188 L 10.367188 17.964844 L 10.546875 17.923828 L 10.722656 17.865234 L 10.892578 17.791016 L 11.052734 17.699219 L 11.205078 17.595703 L 11.347656 17.478516 L 11.478516 17.347656 L 11.595703 17.205078 L 11.699219 17.052734 L 11.789062 16.894531 L 10.892578 16.445312 L 10.865234 16.5 L 10.792969 16.607422 L 10.707031 16.707031 L 10.609375 16.792969 L 10.5 16.865234 L 10.382812 16.923828 L 10.259766 16.964844 L 10.130859 16.992188 L 10 17 L 9.8691406 16.992188 L 9.7402344 16.964844 L 9.6171875 16.923828 L 9.5 16.865234 L 9.390625 16.792969 L 9.2929688 16.707031 L 9.2070312 16.607422 L 9.1347656 16.5 L 9.0761719 16.382812 L 9.0332031 16.257812 L 9.0078125 16.130859 L 9 16 L 9 15 L 9.0078125 14.869141 L 9.0332031 14.740234 L 9.0761719 14.617188 L 9.1347656 14.5 L 9.2070312 14.390625 L 9.2929688 14.292969 L 9.390625 14.207031 L 9.5 14.134766 L 9.6171875 14.076172 L 9.7402344 14.033203 L 9.8691406 14.007812 L 10 14 L 10.130859 14.007812 L 10.259766 14.033203 L 10.382812 14.076172 L 10.5 14.134766 L 10.609375 14.207031 L 10.707031 14.292969 L 10.792969 14.390625 L 10.865234 14.5 L 10.892578 14.554688 L 11.789062 14.105469 L 11.699219 13.947266 L 11.595703 13.794922 L 11.478516 13.652344 L 11.347656 13.521484 L 11.205078 13.404297 L 11.052734 13.298828 L 10.892578 13.208984 L 10.722656 13.134766 L 10.546875 13.076172 L 10.367188 13.033203 L 10.183594 13.007812 L 10 13 z M 13 14 L 13 15 L 12 15 L 12 16 L 13 16 L 13 17 L 14 17 L 14 16 L 15 16 L 15 15 L 14 15 L 14 14 L 13 14 z M 17 14 L 17 15 L 16 15 L 16 16 L 17 16 L 17 17 L 18 17 L 18 16 L 19 16 L 19 15 L 18 15 L 18 14 L 17 14 z " style="stroke:none; stroke-width:0px;"/></g></svg>