<?xml version="1.0" ?><svg fill="#212529" height="20" version="1.1" viewBox="0 0 20 20" width="20" xmlns="http://www.w3.org/2000/svg"><g id="layer1"><path d="M 3 0 L 3 20 L 17 20 L 17 19 L 16 19 L 4 19 L 4 1 L 12 1 L 12 4 L 12 5 L 16 5 L 16 12 L 17 12 L 17 5 L 17 4 L 13 0 L 12 0 L 3 0 z M 13 1.3535156 L 15.646484 4 L 13 4 L 13 1.3535156 z M 17 13 L 16.816406 13.007812 L 16.632812 13.033203 L 16.453125 13.076172 L 16.277344 13.134766 L 16.107422 13.208984 L 15.947266 13.298828 L 15.794922 13.404297 L 15.652344 13.521484 L 15.521484 13.652344 L 15.404297 13.794922 L 15.300781 13.947266 L 15.208984 14.107422 L 15.134766 14.277344 L 15.076172 14.451172 L 15.035156 14.632812 L 15.007812 14.816406 L 15 15 L 15 16 L 15.007812 16.183594 L 15.035156 16.367188 L 15.076172 16.546875 L 15.134766 16.722656 L 15.208984 16.890625 L 15.300781 17.052734 L 15.404297 17.205078 L 15.521484 17.347656 L 15.652344 17.478516 L 15.794922 17.595703 L 15.947266 17.699219 L 16.107422 17.791016 L 16.277344 17.865234 L 16.453125 17.923828 L 16.632812 17.964844 L 16.816406 17.992188 L 17 18 L 17.183594 17.992188 L 17.367188 17.964844 L 17.546875 17.923828 L 17.722656 17.865234 L 17.892578 17.791016 L 18.052734 17.699219 L 18.205078 17.595703 L 18.347656 17.478516 L 18.478516 17.347656 L 18.595703 17.205078 L 18.699219 17.052734 L 18.789062 16.894531 L 17.892578 16.445312 L 17.865234 16.5 L 17.792969 16.607422 L 17.707031 16.707031 L 17.609375 16.792969 L 17.5 16.865234 L 17.382812 16.923828 L 17.259766 16.964844 L 17.130859 16.992188 L 17 17 L 16.869141 16.992188 L 16.740234 16.964844 L 16.617188 16.923828 L 16.5 16.865234 L 16.390625 16.792969 L 16.292969 16.707031 L 16.207031 16.607422 L 16.134766 16.5 L 16.076172 16.382812 L 16.033203 16.257812 L 16.007812 16.130859 L 16 16 L 16 15 L 16.007812 14.869141 L 16.033203 14.740234 L 16.076172 14.617188 L 16.134766 14.5 L 16.207031 14.390625 L 16.292969 14.292969 L 16.390625 14.207031 L 16.5 14.134766 L 16.617188 14.076172 L 16.740234 14.033203 L 16.869141 14.007812 L 17 14 L 17.130859 14.007812 L 17.259766 14.033203 L 17.382812 14.076172 L 17.5 14.134766 L 17.609375 14.207031 L 17.707031 14.292969 L 17.792969 14.390625 L 17.865234 14.5 L 17.892578 14.554688 L 18.789062 14.105469 L 18.699219 13.947266 L 18.595703 13.794922 L 18.478516 13.652344 L 18.347656 13.521484 L 18.205078 13.404297 L 18.052734 13.298828 L 17.892578 13.208984 L 17.722656 13.134766 L 17.546875 13.076172 L 17.367188 13.033203 L 17.183594 13.007812 L 17 13 z " style="stroke:none; stroke-width:0px;"/></g></svg>